<svg version="1" xmlns="http://www.w3.org/2000/svg" width="6666.667" height="6666.667" viewBox="0 0 5000.000000 5000.000000"><path d="M1190 797.3v83.2h2661.5v-166l-1330.7-.3L1190 714v83.3zM1190 1108.7v83.3h2661.5l-.1-82.8c-.1-45.5-.2-82.9-.3-83.2 0-.3-598.8-.5-1330.6-.5H1190v83.2zM1190 1419.7v83.3h2661.5v-83c0-54.6-.3-83-1-83.1-.5-.1-599.4-.2-1330.7-.3l-1329.8-.1v83.2zM1190.4 2166.9c-.2.2-.4 37.7-.4 83.3v82.8h2661.5v-83c0-54.6-.3-83-1-83.1-2.8-.4-2659.7-.3-2660.1 0zM1190 2561.2v83.3h2661.5v-166l-1330.7-.3-1330.8-.2v83.2zM1190.4 2789.9c-.2.2-.4 37.7-.4 83.3v82.8h2661.5l-.1-82.8c-.1-45.5-.2-82.9-.3-83.2-.1-.6-2660.1-.7-2660.7-.1zM1190 3598.7v83.3h2661.5l-.1-82.8c-.1-45.5-.2-82.9-.3-83.2 0-.3-598.8-.5-1330.6-.5H1190v83.2zM1190 3909.7v83.3h2661.5l-.1-82.3c-.1-45.2-.2-82.7-.3-83.2-.1-.7-444.2-1-1330.6-1H1190v83.2zM1190 4221.3v83.2h2661.5v-166l-1330.7-.3-1330.8-.2v83.3z"/></svg>